<?xml version="1.0" encoding="UTF-8" standalone="no"?>
<svg
   width="180px"
   height="180px"
   viewBox="0 0 180 180"
   preserveAspectRatio="xMidYMid slice"
   version="1.1"
   id="svg7"
   sodipodi:docname="favicon.svg"
   inkscape:export-filename="favicon.png"
   inkscape:export-xdpi="96"
   inkscape:export-ydpi="96"
   inkscape:version="1.4 (e7c3feb100, 2024-10-09)"
   xmlns:inkscape="http://www.inkscape.org/namespaces/inkscape"
   xmlns:sodipodi="http://sodipodi.sourceforge.net/DTD/sodipodi-0.dtd"
   xmlns="http://www.w3.org/2000/svg"
   xmlns:svg="http://www.w3.org/2000/svg">
  <defs
     id="defs7" />
  <sodipodi:namedview
     id="namedview7"
     pagecolor="#ffffff"
     bordercolor="#000000"
     borderopacity="0.25"
     inkscape:showpageshadow="2"
     inkscape:pageopacity="0.0"
     inkscape:pagecheckerboard="0"
     inkscape:deskcolor="#d1d1d1"
     inkscape:zoom="6.5833333"
     inkscape:cx="89.924051"
     inkscape:cy="90"
     inkscape:window-width="2256"
     inkscape:window-height="1435"
     inkscape:window-x="0"
     inkscape:window-y="0"
     inkscape:window-maximized="1"
     inkscape:current-layer="svg7" />
  <title
     id="title1">Northern Ireland Executive</title>
  <g
     transform="matrix(0.816757, 0, 0, 0.816757, -19.462181, 21.56547)"
     style="transform-origin: 89.9995px 0.727061px;"
     id="g7">
    <g
       fill="rgb(20, 32, 98)"
       id="g2">
      <path
         d="M 0.591 141.617 L 45.294 167.428 L 45.294 219.046 L 0.591 244.853 L -44.113 219.052 L -44.113 167.428 L 0.591 141.617 Z"
         id="path1" />
      <path
         d="M 0.591 38.384 L 45.294 64.193 L 45.294 115.809 L 0.591 141.617 L -44.113 115.809 L -44.113 64.193 L 0.591 38.384 Z"
         id="path2" />
    </g>
    <g
       fill="rgb(125, 85, 199)"
       id="g6">
      <path
         d="M 90.004 90.141 L 134.709 115.951 L 134.709 167.568 L 90.004 193.381 L 45.294 167.574 L 45.294 115.951 L 90.004 90.141 Z"
         id="path3" />
      <path
         d="M 179.407 141.617 L 224.112 167.428 L 224.112 219.046 L 179.407 244.853 L 134.709 219.052 L 134.709 167.428 L 179.407 141.617 Z"
         id="path4" />
      <path
         d="M 179.407 38.384 L 224.112 64.193 L 224.112 115.809 L 179.407 141.617 L 134.709 115.809 L 134.709 64.193 L 179.407 38.384 Z"
         id="path5" />
      <path
         d="M 90.004 -13.099 L 134.709 12.713 L 134.709 64.332 L 90.004 90.141 L 45.294 64.332 L 45.294 12.713 L 90.004 -13.099 Z"
         id="path6" />
    </g>
  </g>
</svg>
